<?xml version="1.0" standalone="no"?>
<!DOCTYPE svg PUBLIC "-//W3C//DTD SVG 20010904//EN"
 "http://www.w3.org/TR/2001/REC-SVG-20010904/DTD/svg10.dtd">
<svg version="1.0" xmlns="http://www.w3.org/2000/svg"
 width="405.000000pt" height="405.000000pt" viewBox="0 0 405.000000 405.000000"
 preserveAspectRatio="xMidYMid meet">
<metadata>
Created by potrace 1.14, written by Peter Selinger 2001-2017
</metadata>
<g transform="translate(0.000000,405.000000) scale(0.100000,-0.100000)"
fill="#000000" stroke="none">
<path d="M0 3769 c0 -154 3 -279 7 -277 5 2 34 16 65 32 32 15 60 32 63 37 4
5 15 9 25 9 10 0 34 9 52 19 18 10 48 22 67 26 19 4 41 14 49 21 13 14 31 18
64 15 9 -1 27 4 40 12 13 8 60 24 106 37 45 13 82 27 82 32 0 5 9 6 21 3 11
-4 35 0 52 8 18 9 41 17 52 19 11 1 26 8 32 15 7 6 22 9 33 6 12 -3 28 2 39
11 9 9 29 17 44 18 14 1 23 6 21 10 -3 4 1 9 8 10 115 13 193 29 213 42 12 8
46 16 76 19 30 2 81 15 114 27 33 12 85 26 115 32 30 5 70 12 88 15 18 3 35 9
38 14 3 5 29 9 58 9 39 0 59 5 76 20 18 16 37 20 91 20 37 0 71 5 74 10 4 7
-308 10 -929 10 l-936 0 0 -281z"/>
<path d="M2075 3543 c-11 -2 -44 -13 -73 -24 -64 -23 -75 -23 -119 -3 -32 16
-36 16 -61 -2 -49 -35 -138 -240 -205 -474 -31 -104 -35 -109 -94 -116 l-50
-6 -32 45 c-49 72 -182 198 -252 239 -125 74 -164 62 -164 -50 0 -86 25 -136
89 -179 50 -35 54 -43 8 -19 -71 37 -124 124 -126 203 0 57 -16 50 -16 -8 0
-107 93 -261 268 -441 114 -117 114 -117 142 -103 15 8 33 28 40 44 7 17 19
36 28 43 13 11 14 10 4 -9 -14 -26 -16 -44 -2 -23 9 13 11 13 20 0 5 -8 10
-10 10 -4 0 7 11 15 25 18 14 4 25 12 25 20 0 7 6 19 14 25 11 9 9 -2 -6 -41
-21 -57 -35 -179 -24 -222 9 -37 40 -34 60 7 8 19 28 89 43 157 15 68 29 118
31 112 4 -14 122 -17 122 -4 0 5 6 17 14 28 9 12 7 -2 -6 -41 -22 -62 -35
-195 -24 -238 13 -53 67 -40 93 21 9 20 26 87 39 147 12 61 23 105 23 99 1 -7
49 -13 139 -17 131 -5 252 -25 317 -52 17 -7 64 -15 106 -19 42 -3 97 -14 122
-25 25 -11 48 -17 51 -14 3 4 6 2 6 -4 0 -6 7 -14 16 -17 8 -3 12 -2 9 4 -3 6
-2 10 2 10 10 0 81 -118 105 -175 28 -67 20 -144 -20 -188 -9 -10 -17 -28 -19
-40 -14 -104 -101 -267 -179 -338 -23 -20 -48 -55 -58 -82 -9 -26 -26 -57 -37
-69 -18 -22 -18 -21 1 19 19 41 19 42 0 98 -41 121 -129 225 -257 307 -72 46
-130 68 -181 68 -40 0 -86 -57 -106 -131 -12 -45 -15 -49 -15 -22 l-1 31 -30
-14 c-16 -9 -30 -19 -30 -23 0 -13 -100 -30 -180 -32 -82 -2 -148 8 -168 24
-9 7 -11 6 -9 -4 2 -8 2 -11 0 -6 -3 4 -9 5 -14 2 -5 -4 -6 1 -3 9 3 9 2 16
-4 16 -6 0 -18 3 -27 7 -14 5 -16 2 -10 -18 12 -43 -42 53 -61 109 l-19 53
-44 -6 c-73 -11 -163 -42 -213 -74 -73 -46 -95 -110 -64 -184 25 -59 159 -177
201 -177 19 0 13 -38 -13 -80 -12 -19 -22 -38 -22 -42 0 -4 -53 -5 -117 -2
l-118 6 -32 -32 c-18 -18 -30 -36 -27 -41 3 -5 -3 -9 -13 -9 -10 0 -29 -7 -41
-16 -12 -8 -22 -11 -22 -6 0 5 -6 9 -12 10 -7 1 -29 4 -48 7 -193 29 -240 26
-240 -19 0 -32 -14 -40 -33 -21 -9 8 -27 15 -41 15 -14 0 -28 5 -31 10 -3 5 2
10 12 10 15 0 16 2 3 10 -13 9 -13 10 0 10 13 0 13 1 0 10 -8 5 -42 10 -74 10
-118 0 -45 10 110 16 l159 5 38 38 39 38 -129 7 c-140 8 -216 22 -193 36 10 6
13 23 11 49 -2 37 0 41 21 42 l23 0 -22 9 c-13 5 -23 16 -23 25 0 9 -12 18
-30 22 -21 4 -29 11 -28 22 2 10 -5 17 -20 19 -12 2 -22 10 -22 19 0 11 6 14
23 9 12 -4 51 -12 87 -18 106 -18 142 -28 137 -41 -2 -7 6 -17 17 -23 12 -6
20 -15 19 -21 -1 -6 22 -18 52 -28 51 -15 66 -31 48 -49 -17 -17 -10 -36 13
-36 13 0 24 3 24 8 0 4 45 5 100 4 68 -3 100 0 100 7 0 7 -31 11 -89 11 -55 0
-92 4 -97 11 -12 20 19 29 101 30 111 2 51 16 -74 18 -52 0 -91 4 -88 8 4 3 2
12 -4 19 -14 17 22 28 64 20 26 -5 38 -1 60 20 25 23 33 25 82 19 34 -5 55
-12 55 -20 0 -7 7 -15 15 -19 8 -3 15 -12 15 -20 0 -9 14 -18 35 -22 19 -3 38
-10 40 -15 8 -11 32 -1 39 17 4 10 2 12 -6 8 -7 -4 -8 -3 -4 4 10 16 -12 54
-26 46 -7 -4 -8 -3 -4 4 3 6 -3 30 -14 54 -11 24 -21 55 -22 71 -1 15 -6 27
-11 27 -5 0 -6 -7 -3 -16 3 -8 2 -12 -4 -9 -6 3 -10 15 -10 26 0 10 -5 19 -10
19 -6 0 -5 8 2 20 10 16 10 22 0 32 -11 11 -12 10 -6 -5 4 -12 2 -17 -7 -15
-9 2 -15 -8 -17 -29 -2 -18 -8 -33 -14 -33 -6 0 -6 -6 2 -15 15 -17 7 -19 -21
-5 -10 6 -19 17 -19 25 0 8 -21 22 -49 32 -43 15 -47 19 -37 35 9 15 8 21 -4
28 -23 15 -37 11 -17 -4 16 -13 16 -14 -5 -19 -13 -4 -29 0 -39 9 -10 9 -42
17 -76 19 -32 2 -70 9 -83 15 -20 8 -12 9 40 6 60 -5 62 -4 30 7 l-35 12 44 3
c24 2 57 -2 73 -9 30 -12 45 -8 33 10 -3 6 -25 12 -48 12 -39 1 -40 2 -12 8
17 4 41 3 55 -2 39 -15 98 -20 80 -8 -8 6 -11 11 -6 11 5 0 -4 11 -20 25 -21
19 -25 25 -12 25 9 0 23 -7 32 -15 20 -20 26 -19 26 5 0 16 -7 20 -31 20 -17
0 -28 4 -24 10 3 6 15 10 26 10 22 0 24 11 7 28 -23 23 38 13 76 -13 50 -34
89 -32 54 3 -8 8 -8 15 2 26 10 13 10 17 -2 21 -16 6 -21 35 -5 32 5 -1 11 3
14 9 2 6 -15 21 -38 33 -50 27 -72 47 -64 61 3 5 1 10 -4 10 -6 0 -11 5 -11
10 0 6 10 10 23 10 l22 0 -25 20 c-14 11 -46 32 -71 47 -31 18 -45 32 -42 43
2 9 -12 40 -32 70 -22 33 -32 56 -25 60 6 4 -2 18 -20 35 -16 16 -30 36 -30
46 0 9 -13 22 -29 29 -16 6 -31 20 -34 31 -3 10 -18 24 -34 31 -15 7 -45 27
-66 45 -20 18 -44 33 -52 33 -8 0 -16 8 -17 18 0 9 -2 22 -2 28 -2 14 -27 38
-48 47 -20 7 -23 22 -8 32 6 4 5 14 -3 28 -6 12 -13 24 -14 26 -1 2 -17 -6
-36 -17 -18 -12 -60 -28 -93 -37 -32 -8 -70 -23 -84 -34 -14 -10 -36 -21 -48
-25 -13 -4 -39 -21 -58 -38 l-34 -30 0 -403 0 -403 38 -12 c56 -19 60 -29 8
-24 -40 4 -46 2 -46 -15 0 -14 5 -18 20 -14 14 4 20 0 20 -10 0 -10 -6 -13
-20 -10 -18 5 -20 0 -20 -56 l0 -61 32 0 c30 0 31 1 12 16 -18 15 -17 15 15
10 18 -3 39 -6 47 -6 7 0 19 -6 26 -13 7 -7 22 -19 33 -26 16 -10 3 -11 -73
-5 l-92 6 0 -161 0 -161 48 1 c26 1 37 4 24 6 -12 2 -20 9 -17 14 4 5 16 7 28
5 12 -3 43 -8 69 -11 35 -5 46 -10 42 -20 -4 -9 4 -19 20 -26 25 -12 28 -33 3
-24 -7 3 -41 6 -77 9 -36 2 -78 9 -93 15 -16 6 -33 11 -38 11 -5 0 -9 -128 -9
-320 l0 -320 23 4 c34 8 181 24 277 32 61 5 91 11 105 24 32 30 138 82 132 66
-8 -21 15 -76 32 -76 8 0 12 -3 8 -6 -3 -3 -32 2 -64 12 -65 20 -80 19 -105
-3 -23 -21 -23 -36 0 -25 18 9 322 -45 322 -58 0 -4 -70 7 -156 24 -192 38
-184 43 -184 -113 0 -108 13 -181 31 -181 6 0 8 -4 5 -9 -4 -5 14 -17 39 -26
39 -16 46 -23 56 -59 6 -22 20 -58 31 -79 11 -22 18 -40 16 -41 -2 -2 -41 -8
-88 -15 -47 -6 -155 -25 -240 -41 -85 -16 -174 -31 -197 -35 l-43 -7 0 -94 c0
-56 4 -94 10 -94 6 0 10 -18 10 -40 0 -22 -4 -40 -10 -40 -6 0 -10 -27 -10
-60 l0 -60 1461 0 1461 0 80 41 c87 46 114 75 153 164 39 88 38 88 86 107 24
9 149 58 276 109 183 72 238 97 258 121 24 28 35 65 16 53 -5 -3 -12 3 -16 14
-6 21 20 61 40 61 22 0 38 126 42 320 4 206 8 240 28 240 12 0 109 -30 148
-45 13 -6 17 -2 17 18 0 21 -6 25 -40 31 -22 3 -63 11 -91 17 -50 11 -50 11
-49 47 3 71 1 82 -19 82 -10 0 -30 -9 -44 -20 -23 -19 -31 -19 -72 -9 -91 23
-62 73 38 67 44 -3 57 -1 57 10 0 11 -14 13 -70 10 -38 -2 -70 0 -70 4 0 4
-17 1 -37 -6 -21 -7 -62 -16 -90 -20 -48 -6 -53 -5 -53 12 0 12 9 22 23 26 37
10 95 7 103 -6 5 -8 11 -6 20 7 9 11 31 20 62 23 39 3 48 8 48 23 0 10 -4 19
-8 19 -4 0 -8 13 -8 28 0 46 -12 50 -136 44 -79 -3 -114 -1 -114 6 0 7 35 12
98 14 53 2 95 5 93 8 -2 3 1 15 7 27 8 14 9 24 2 28 -5 3 -10 14 -10 24 0 15
7 17 53 14 28 -2 59 1 67 6 13 9 12 12 -5 26 -16 12 -17 14 -2 9 21 -8 21 -12
-3 171 -28 208 -22 191 -85 211 -30 10 -56 16 -59 13 -2 -2 0 -29 5 -59 4 -30
7 -75 7 -100 0 -25 -6 1 -13 59 -7 57 -10 113 -8 125 3 17 2 18 -6 6 -9 -15
-7 -52 25 -422 5 -58 4 -78 -5 -78 -7 0 -10 -3 -8 -7 3 -5 -15 -8 -39 -8 -24
0 -44 2 -44 5 1 16 30 39 43 34 8 -3 18 0 22 5 3 6 11 8 17 5 7 -4 8 10 4 42
-3 27 -13 126 -22 219 -9 105 -21 178 -30 192 -17 27 -120 61 -136 45 -16 -16
-1 -30 41 -37 64 -11 69 -19 75 -125 3 -52 2 -81 -2 -65 -8 35 -24 38 -71 15
-34 -17 -35 -18 -34 -81 0 -70 -1 -58 -22 141 l-14 135 6 -145 c3 -80 6 -156
7 -170 1 -21 10 -28 56 -43 62 -21 80 -33 80 -54 0 -11 -4 -11 -20 -3 -11 6
-70 23 -132 39 -118 30 -140 48 -50 43 l53 -3 -6 98 c-13 192 -23 265 -36 278
-8 7 -40 22 -71 34 l-58 21 0 -25 c0 -21 7 -26 45 -36 25 -6 47 -14 49 -18 2
-3 6 -60 9 -126 3 -66 3 -109 1 -95 -10 51 -11 52 -50 31 -21 -11 -41 -18 -46
-15 -14 9 -26 -40 -34 -130 -4 -48 -9 -85 -11 -82 -5 4 26 491 32 512 2 6 33
1 84 -15 72 -23 81 -29 82 -51 2 -25 2 -25 6 -2 3 13 10 22 16 19 7 -2 66 -21
132 -41 66 -20 132 -41 146 -45 25 -9 60 2 48 14 -3 3 -84 32 -180 65 -259 89
-320 113 -368 148 -24 18 -54 32 -67 32 -34 0 -24 22 39 89 200 209 148 509
-111 640 -95 48 -178 64 -327 64 -166 1 -305 -26 -520 -98 -88 -29 -161 -52
-163 -50 -2 1 52 23 120 47 116 43 172 60 278 88 l44 12 -29 12 c-17 7 -86 73
-155 145 -68 73 -136 139 -150 146 -31 16 -88 25 -115 18z m-251 -424 c-2 -5
0 -19 7 -31 12 -22 11 -23 -8 -5 -12 10 -28 15 -39 11 -18 -5 -18 -5 0 10 11
9 16 16 12 16 -4 0 -5 4 -1 10 3 5 12 7 20 4 8 -4 12 -10 9 -15z m-24 -65 c0
-8 -7 -17 -15 -20 -8 -4 -12 -10 -9 -15 3 -5 0 -9 -5 -9 -16 0 -13 16 4 30 8
7 15 17 15 23 0 5 -10 2 -22 -9 l-23 -19 19 22 c20 24 36 22 36 -3z m20 -14
c-6 -10 -16 -22 -23 -26 -9 -5 -9 -4 1 7 6 7 12 21 12 32 0 10 5 15 10 12 7
-4 7 -12 0 -25z m240 20 c-8 -5 -19 -10 -25 -10 -5 0 -3 5 5 10 8 5 20 10 25
10 6 0 3 -5 -5 -10z m-192 -36 c0 -18 -8 -28 -26 -35 -13 -5 -27 -7 -30 -4 -3
3 0 5 7 5 7 0 11 7 8 15 -4 8 -2 17 4 20 5 4 8 1 7 -6 -2 -6 2 -13 8 -16 7 -2
10 5 7 22 -3 14 -1 25 5 25 5 0 10 -12 10 -26z m-124 0 c3 -8 2 -12 -4 -9 -6
3 -10 10 -10 16 0 14 7 11 14 -7z m186 -9 c-45 -17 -47 -17 -53 -2 -3 8 10 13
42 14 l46 2 -35 -14z m-220 -30 c14 -19 14 -19 -2 -6 -10 7 -18 18 -18 24 0 6
1 8 3 6 1 -2 9 -13 17 -24z m-27 3 c3 -8 -4 -13 -19 -13 -28 0 -32 11 -6 18 9
3 18 5 18 6 1 0 4 -5 7 -11z m84 -4 c-3 -3 -12 -4 -19 -1 -8 3 -5 6 6 6 11 1
17 -2 13 -5z m-570 -50 c-3 -3 -12 -4 -19 -1 -8 3 -5 6 6 6 11 1 17 -2 13 -5z
m50 -10 c-3 -3 -12 -4 -19 -1 -8 3 -5 6 6 6 11 1 17 -2 13 -5z m-687 -64 c0
-5 -2 -10 -4 -10 -3 0 -8 5 -11 10 -3 6 -1 10 4 10 6 0 11 -4 11 -10z m1319
-88 c12 -23 -2 -89 -22 -110 -43 -42 -64 35 -27 96 22 36 35 40 49 14z m-258
-83 c-13 -44 -37 -67 -52 -52 -16 16 -1 69 29 105 27 32 27 32 30 8 2 -13 -1
-41 -7 -61z m-1231 -129 c28 -16 31 -19 14 -20 -12 0 -32 9 -45 20 -30 25 -14
25 31 0z m70 -39 c9 13 90 -40 90 -59 0 -10 9 -23 21 -30 12 -7 18 -16 15 -19
-3 -3 -26 13 -52 36 -36 31 -50 38 -60 30 -7 -6 -18 -8 -24 -4 -6 4 -27 4 -47
0 l-35 -6 23 -17 c13 -8 28 -22 32 -29 4 -7 17 -13 29 -13 17 0 18 2 8 15 -8
10 -9 15 -2 15 6 0 34 -22 62 -50 48 -45 49 -48 22 -41 -16 5 -39 14 -50 20
-11 6 -31 11 -45 11 -15 0 -38 16 -65 47 -48 53 -51 63 -19 63 20 1 21 2 5 14
-28 20 -22 23 35 16 28 -4 54 -4 57 1z m1364 -42 c-16 -18 -19 -18 -33 -4 -14
14 -14 17 -1 25 8 5 17 7 21 4 4 -2 11 1 15 8 6 9 9 9 12 -1 2 -6 -4 -21 -14
-32z m-254 -8 c-10 -20 -30 -29 -30 -14 0 8 34 41 38 38 2 -2 -1 -13 -8 -24z
m-662 -46 c2 -2 4 -9 5 -17 2 -7 9 -28 16 -46 8 -18 11 -35 8 -38 -10 -10 -43
14 -56 43 -7 15 -17 35 -22 44 -4 9 -5 20 -2 23 6 5 42 -1 51 -9z m-264 -75
c38 -40 38 -40 13 -40 -30 0 -44 -15 -21 -24 25 -10 66 -7 59 4 -3 6 1 10 10
10 24 0 56 -20 50 -31 -4 -5 1 -9 9 -9 9 0 16 -5 16 -10 0 -19 -25 -21 -63 -5
-46 19 -57 19 -57 0 0 -23 -8 -19 -54 30 -40 42 -42 50 -8 46 17 -2 15 20 -4
47 -26 38 7 26 50 -18z m2603 -62 c-2 -13 -4 -3 -4 22 0 25 2 35 4 23 2 -13 2
-33 0 -45z m-103 23 c13 -14 16 -32 13 -72 l-3 -54 -2 57 c-2 46 -6 60 -24 72
-12 9 -18 16 -12 16 6 0 19 -9 28 -19z m-2801 -26 c20 -8 51 -15 69 -15 42 -1
99 -25 78 -33 -8 -4 -28 -8 -45 -10 l-30 -3 37 -17 c26 -12 36 -22 32 -32 -4
-9 0 -15 8 -15 8 0 23 -8 34 -19 12 -10 39 -22 62 -26 23 -4 42 -10 42 -15 0
-4 -25 -2 -55 5 -63 14 -70 11 -20 -9 19 -8 35 -19 35 -25 0 -5 18 -9 40 -9
27 0 40 5 40 14 0 17 4 17 33 2 37 -21 68 -46 68 -55 0 -4 14 -23 31 -40 l32
-33 -42 0 c-42 0 -56 -13 -27 -24 8 -3 15 -10 15 -16 0 -17 -39 -11 -60 10
-11 11 -28 20 -37 21 -13 0 -11 3 7 11 19 8 21 12 10 16 -8 3 -28 16 -43 28
-16 13 -34 24 -40 24 -7 0 -18 9 -25 20 -10 17 -23 20 -76 20 -36 0 -71 3 -80
6 -21 8 -10 24 15 24 13 0 18 4 13 12 -4 7 -9 25 -11 41 -4 33 -27 56 -59 57
-11 0 -29 6 -39 14 -11 8 -25 11 -33 9 -13 -6 -40 24 -54 59 -9 23 24 24 75 3z
m2894 -137 c-2 -18 -4 -4 -4 32 0 36 2 50 4 33 2 -18 2 -48 0 -65z m-3077 12
c0 -5 -4 -10 -9 -10 -6 0 -13 5 -16 10 -3 6 1 10 9 10 9 0 16 -4 16 -10z
m2987 -87 c-2 -16 -4 -3 -4 27 0 30 2 43 4 28 2 -16 2 -40 0 -55z m-3032 57
c8 -13 -5 -13 -25 0 -13 8 -13 10 2 10 9 0 20 -4 23 -10z m3578 -33 c3 -8 0
-14 -7 -14 -7 0 -13 6 -13 14 0 7 4 13 8 13 4 0 9 -6 12 -13z m-466 -84 c-2
-16 -4 -3 -4 27 0 30 2 43 4 28 2 -16 2 -40 0 -55z m-2937 7 c37 -31 26 -40
-27 -19 -22 8 -24 12 -13 19 8 6 13 10 10 10 -3 1 -27 3 -54 5 -68 6 -71 15
-5 15 45 0 60 -5 89 -30z m585 20 c3 -6 -1 -7 -9 -4 -18 7 -21 14 -7 14 6 0
13 -4 16 -10z m-455 -10 c11 -7 4 -10 -25 -9 -31 0 -36 2 -20 9 26 11 28 11
45 0z m140 -11 c0 -6 -4 -7 -10 -4 -5 3 -10 11 -10 16 0 6 5 7 10 4 6 -3 10
-11 10 -16z m360 -34 c0 -1 -9 -5 -20 -8 -12 -3 -20 0 -20 8 0 8 8 11 20 8 11
-3 20 -7 20 -8z m2217 -67 c-2 -18 -4 -6 -4 27 0 33 2 48 4 33 2 -15 2 -42 0
-60z m-2562 62 c3 -5 -3 -10 -14 -10 -11 0 -23 5 -26 10 -3 6 3 10 14 10 11 0
23 -4 26 -10z m2642 -77 c-3 -10 -5 -2 -5 17 0 19 2 27 5 18 2 -10 2 -26 0
-35z m-2997 21 c0 -2 -7 -4 -15 -4 -8 0 -15 4 -15 10 0 5 7 7 15 4 8 -4 15 -8
15 -10z m3457 -41 c-3 -10 -5 -2 -5 17 0 19 2 27 5 18 2 -10 2 -26 0 -35z
m-3410 -9 l23 -6 -24 -19 c-39 -31 -84 -18 -56 16 14 16 24 18 57 9z m2863
-34 c0 -16 -4 -30 -8 -30 -5 0 -7 14 -4 30 2 17 6 30 8 30 2 0 4 -13 4 -30z
m77 -62 c-3 -7 -5 -2 -5 12 0 14 2 19 5 13 2 -7 2 -19 0 -25z m20 -20 c-3 -8
-6 -5 -6 6 -1 11 2 17 5 13 3 -3 4 -12 1 -19z m223 -12 c0 -3 -4 -8 -10 -11
-5 -3 -10 -1 -10 4 0 6 5 11 10 11 6 0 10 -2 10 -4z m140 -11 c0 -8 -4 -15
-10 -15 -5 0 -7 7 -4 15 4 8 8 15 10 15 2 0 4 -7 4 -15z m-307 -30 c1 -5 -6
-11 -15 -13 -11 -2 -18 3 -18 13 0 17 30 18 33 0z m-403 -43 c146 -2 170 -5
213 -25 26 -12 47 -25 47 -28 0 -9 -48 -15 -267 -35 l-192 -18 18 -30 c9 -17
17 -37 17 -45 -2 -24 -92 -42 -175 -35 -122 10 -130 25 -11 19 58 -3 121 -1
140 4 32 8 29 9 -30 11 -64 1 -171 16 -138 19 10 0 22 11 29 22 11 22 11 22
-82 15 -52 -4 -143 -14 -204 -21 -60 -7 -112 -11 -115 -8 -11 11 35 32 128 58
110 31 172 59 172 78 0 15 51 21 187 21 48 1 83 5 83 11 0 7 3 7 8 0 4 -6 77
-11 172 -13z m493 1 c-7 -2 -19 -2 -25 0 -7 3 -2 5 12 5 14 0 19 -2 13 -5z
m-1826 -39 c-3 -3 -12 -4 -19 -1 -8 3 -5 6 6 6 11 1 17 -2 13 -5z m-1467 -24
c12 -8 12 -10 -5 -9 -11 0 -29 4 -40 9 -18 8 -18 9 5 9 14 0 32 -4 40 -9z
m3410 0 c0 -5 -13 -10 -28 -10 -16 0 -65 -3 -108 -6 -43 -4 -76 -3 -72 1 6 6
54 12 191 24 9 0 17 -3 17 -9z m-3303 -29 c1 -15 -3 -17 -20 -13 -12 3 -28 12
-35 19 -11 11 -8 13 20 13 26 0 34 -4 35 -19z m2973 -10 c-8 -5 -109 -34 -225
-64 -115 -31 -237 -65 -269 -77 -66 -23 -76 -24 -76 -11 0 12 53 29 270 85 96
25 200 52 230 60 66 17 93 20 70 7z m-2253 -7 c-3 -3 -12 -4 -19 -1 -8 3 -5 6
6 6 11 1 17 -2 13 -5z m-150 -26 c54 -18 67 -51 70 -173 2 -66 0 -93 -6 -80
-8 16 -10 12 -10 -22 -1 -33 -7 -48 -28 -68 -16 -14 -22 -25 -14 -23 20 4 25
-21 6 -29 -17 -6 -107 8 -178 28 -54 15 -49 47 10 69 41 15 42 16 24 32 -11 9
-22 14 -25 11 -3 -3 -5 3 -5 13 0 11 -3 40 -7 66 -9 67 24 133 80 159 41 18
41 19 11 20 -16 0 -41 5 -55 10 -40 14 82 1 127 -13z m-422 -53 c72 -4 132 -9
135 -12 3 -2 -72 -3 -167 -1 -94 2 -174 6 -178 10 -4 3 -4 16 0 27 6 20 6 20
43 1 28 -14 68 -20 167 -25z m824 10 c300 -20 827 -72 852 -86 10 -5 21 -20
25 -33 8 -34 -12 -320 -25 -344 -6 -11 -24 -23 -40 -27 -34 -7 -446 11 -575
26 -85 9 -451 73 -488 85 -10 3 -27 17 -38 31 -18 23 -20 40 -20 179 0 125 3
155 16 168 19 19 4 19 293 1z m931 -35 c0 -5 -5 -10 -11 -10 -5 0 -7 5 -4 10
3 6 8 10 11 10 2 0 4 -4 4 -10z m953 -7 c-7 -2 -19 -2 -25 0 -7 3 -2 5 12 5
14 0 19 -2 13 -5z m91 -12 c-5 -5 -81 -17 -169 -26 -164 -17 -263 -32 -233
-34 9 0 74 5 145 13 252 28 272 29 279 11 11 -28 -9 -36 -137 -51 -144 -17
-299 -34 -314 -34 -11 0 -50 59 -43 65 5 4 212 33 338 46 63 7 119 16 124 21
13 10 22 0 10 -11z m358 -13 c-15 -15 -26 -4 -18 18 5 13 9 15 18 6 9 -9 9
-15 0 -24z m-3132 12 c8 -5 11 -10 5 -10 -5 -1 14 -9 44 -18 68 -21 79 -42 23
-42 -23 0 -42 -5 -45 -12 -3 -10 -11 -10 -34 -2 -17 6 -47 8 -69 5 l-39 -7 35
-6 c60 -11 250 -21 250 -13 0 4 -8 14 -17 21 -17 13 -17 15 -1 27 9 7 18 24
21 37 2 14 5 -21 6 -77 0 -57 5 -103 9 -103 5 0 7 -13 4 -30 l-4 -30 -107 0
c-79 0 -112 4 -127 15 -15 12 -16 16 -5 24 9 6 -2 11 -35 16 -34 5 -57 16 -83
41 -20 18 -40 34 -44 34 -11 0 47 58 87 88 16 12 41 22 55 23 26 1 26 1 -4 14
l-30 14 45 0 c25 1 52 -4 60 -9z m3070 0 c0 -5 8 -10 17 -10 20 0 10 -12 -15
-18 -110 -24 -181 -27 -189 -7 -8 23 0 27 69 35 95 11 118 11 118 0z m240 -10
c0 -5 -10 -10 -22 -9 -22 0 -22 1 -3 9 11 5 21 9 23 9 1 1 2 -3 2 -9z m-1230
-9 l55 -7 -50 -9 c-42 -7 -46 -9 -27 -16 12 -5 34 -20 48 -34 14 -14 29 -23
33 -20 8 4 18 -16 35 -68 3 -11 2 -16 -4 -12 -6 4 -10 -9 -10 -30 0 -39 -20
-86 -54 -124 -16 -19 -17 -23 -4 -18 17 6 19 -8 5 -30 -5 -8 -3 -13 6 -13 15
0 27 -20 27 -46 0 -11 -21 -14 -107 -14 -60 0 -138 3 -175 7 -62 5 -68 8 -68
29 0 12 5 26 12 30 8 5 9 1 5 -12 -7 -18 -6 -18 7 -1 7 9 28 17 47 18 19 1 27
3 17 6 -9 2 -19 11 -22 19 -4 11 -1 14 12 10 9 -3 23 -2 31 3 11 7 10 10 -5
15 -11 3 -32 25 -47 48 -36 55 -38 131 -5 174 35 44 60 63 96 70 39 8 42 21 5
27 -49 7 80 5 137 -2z m790 -16 c0 -20 -5 -25 -24 -25 -27 0 -44 29 -24 42 26
16 48 9 48 -17z m240 -15 c-18 -12 -30 -13 -30 -2 0 4 10 9 22 9 18 2 20 0 8
-7z m-259 -67 c6 -6 -17 -15 -66 -27 -41 -10 -85 -26 -97 -36 -14 -11 -29 -15
-38 -10 -21 10 -123 35 -135 32 -5 -1 -2 4 9 12 10 9 42 20 70 25 28 6 60 12
71 15 33 8 175 0 186 -11z m611 -50 c22 -20 23 -33 1 -33 -9 0 -25 -7 -35 -17
-17 -15 -18 -14 -18 25 0 47 18 56 52 25z m-187 -2 c-9 -8 -120 -41 -139 -41
-3 0 -6 4 -6 9 0 5 26 16 58 24 68 18 100 21 87 8z m-155 -38 c0 -5 -52 -22
-115 -39 -72 -19 -115 -27 -115 -20 0 6 44 23 98 38 104 28 132 32 132 21z
m-308 -60 c11 -10 25 -27 31 -38 9 -18 9 -19 -8 -5 -10 8 -20 14 -22 13 -2 -2
-16 -9 -32 -18 -17 -8 -33 -20 -37 -26 -5 -8 -3 -9 6 -4 9 5 11 4 6 -4 -4 -6
-11 -9 -16 -6 -5 3 -12 0 -15 -6 -4 -5 -13 -8 -20 -5 -8 3 -15 0 -17 -6 -2 -5
-12 5 -22 23 -21 41 -10 84 26 99 33 14 96 5 120 -17z m-392 8 c0 -10 -48 -21
-91 -21 -42 0 -35 18 9 23 71 7 82 7 82 -2z m-570 -70 c0 -5 -7 -11 -14 -14
-10 -4 -13 -1 -9 9 6 15 23 19 23 5z m-1832 -8 c-10 -2 -28 -2 -40 0 -13 2 -5
4 17 4 22 1 32 -1 23 -4z m461 -73 c11 0 11 -4 -2 -18 -14 -15 -17 -42 -17
-148 0 -71 -4 -134 -8 -139 -4 -6 -17 -12 -29 -12 -11 -1 -44 -18 -73 -39 -46
-33 -55 -36 -95 -31 -24 4 -59 13 -77 22 -18 8 -24 13 -13 9 11 -3 43 -11 70
-16 49 -11 53 -10 101 23 l51 34 -5 133 -4 133 36 -6 c24 -5 36 -3 36 4 0 6
-13 11 -30 11 -20 0 -30 5 -30 15 0 19 30 36 55 30 11 -3 26 -5 34 -5z m2668
-46 c-3 -3 -54 -26 -114 -51 -59 -24 -114 -47 -120 -50 -7 -3 -13 -1 -13 5 0
5 55 32 122 60 109 45 144 55 125 36z m-2496 -33 c229 -31 540 -71 717 -90
152 -18 182 -24 171 -36 -3 -2 -200 21 -439 51 -239 30 -475 60 -525 66 -49 6
-94 15 -99 19 -15 13 15 11 175 -10z m2509 10 c0 -11 -240 -114 -248 -106 -9
9 11 22 48 33 19 6 71 26 115 46 91 41 85 39 85 27z m155 -61 c0 -15 -110 -80
-131 -77 -17 3 -154 -65 -149 -74 7 -10 -25 -20 -37 -12 -7 4 -8 1 -3 -7 6
-10 4 -12 -9 -7 -9 4 -14 3 -11 -2 7 -12 -31 -24 -46 -15 -8 4 -9 3 -5 -4 4
-7 2 -12 -3 -12 -6 0 -11 11 -11 25 0 14 6 25 13 25 8 0 9 3 1 8 -6 4 -11 21
-12 37 -1 30 3 33 116 82 114 51 119 52 202 50 68 -2 85 -5 85 -17z m-1675
-10 l29 0 -17 -30 c-9 -16 -21 -30 -25 -30 -5 0 -6 4 -2 9 3 6 -13 11 -35 13
-40 3 -40 3 -24 26 9 14 22 21 31 18 8 -3 28 -6 43 -6z m684 1 c3 -5 31 -26
62 -46 30 -20 53 -39 50 -42 -3 -3 -33 -11 -68 -18 -65 -14 -79 -11 -123 24
-28 22 -21 42 23 68 42 25 49 27 56 14z m1126 -39 c0 -25 -16 -46 -29 -38 -20
12 -13 52 9 53 13 1 20 -4 20 -15z m-151 -6 c-2 -2 -53 -29 -113 -61 l-108
-58 7 -61 6 -62 -93 9 c-51 5 -94 10 -95 11 -1 1 0 11 3 22 4 14 63 48 197
116 106 53 194 94 196 92 2 -2 2 -6 0 -8z m-1675 -21 c17 -13 18 -24 11 -137
l-7 -123 26 -27 c15 -14 51 -43 80 -63 52 -36 53 -36 220 -50 92 -8 180 -12
196 -9 15 4 45 20 65 37 l38 31 -6 119 c-5 109 -7 122 -29 144 -27 27 -69 33
-380 54 -104 7 -188 17 -188 22 0 9 62 6 362 -18 171 -14 218 -27 234 -64 3
-9 9 -70 11 -136 l6 -120 -33 -32 c-56 -55 -69 -57 -271 -40 -194 17 -189 15
-281 90 -31 26 -70 47 -91 51 l-37 7 0 139 0 140 28 0 c15 0 35 -7 46 -15z
m1629 -64 c-6 -25 -73 -44 -73 -21 0 6 11 10 24 10 13 0 29 7 36 15 16 20 19
19 13 -4z m-499 -89 c-6 -4 -16 -16 -22 -27 -11 -18 -11 -16 -6 10 9 42 15 48
28 35 8 -8 8 -13 0 -18z m-2617 12 c-3 -3 -12 -4 -19 -1 -8 3 -5 6 6 6 11 1
17 -2 13 -5z m2223 -4 c-8 -5 -22 -10 -30 -10 -13 0 -13 1 0 10 8 5 22 10 30
10 13 0 13 -1 0 -10z m-1900 -9 c-54 -5 -73 -12 -107 -38 -22 -18 -51 -33 -64
-32 -24 1 -24 1 2 9 14 4 45 21 69 39 38 27 50 31 104 29 l61 -1 -65 -6z m118
-8 c-10 -2 -26 -2 -35 0 -10 3 -2 5 17 5 19 0 27 -2 18 -5z m75 -10 c-7 -2
-21 -2 -30 0 -10 3 -4 5 12 5 17 0 24 -2 18 -5z m70 -10 c-7 -2 -21 -2 -30 0
-10 3 -4 5 12 5 17 0 24 -2 18 -5z m54 -9 c-3 -3 -12 -4 -19 -1 -8 3 -5 6 6 6
11 1 17 -2 13 -5z m1673 -2 c0 -12 -99 -34 -113 -25 -6 3 7 12 29 19 47 14 84
17 84 6z m-2205 -12 c13 -5 14 -9 5 -9 -8 0 -24 4 -35 9 -13 5 -14 9 -5 9 8 0
24 -4 35 -9z m598 3 c-7 -2 -21 -2 -30 0 -10 3 -4 5 12 5 17 0 24 -2 18 -5z
m70 -10 c-7 -2 -21 -2 -30 0 -10 3 -4 5 12 5 17 0 24 -2 18 -5z m74 -9 c-3 -3
-12 -4 -19 -1 -8 3 -5 6 6 6 11 1 17 -2 13 -5z m1763 -11 c0 -16 2 -16 11 -3
8 11 9 8 5 -17 -3 -18 -1 -33 5 -35 6 -2 2 -14 -10 -28 l-21 -25 -20 24 c-11
13 -20 33 -20 45 1 20 1 20 11 2 9 -15 13 -16 20 -5 4 8 6 24 2 36 -3 14 -1
23 6 23 6 0 11 -8 11 -17z m-1697 0 c-7 -2 -19 -2 -25 0 -7 3 -2 5 12 5 14 0
19 -2 13 -5z m70 -10 c-7 -2 -21 -2 -30 0 -10 3 -4 5 12 5 17 0 24 -2 18 -5z
m70 -10 c-7 -2 -21 -2 -30 0 -10 3 -4 5 12 5 17 0 24 -2 18 -5z m-213 -12 c43
-8 44 -9 10 -10 -19 -1 -63 -8 -97 -15 -35 -7 -63 -12 -63 -9 0 2 5 13 10 24
12 21 57 24 140 10z m273 2 c-7 -2 -21 -2 -30 0 -10 3 -4 5 12 5 17 0 24 -2
18 -5z m75 -10 c-10 -2 -26 -2 -35 0 -10 3 -2 5 17 5 19 0 27 -2 18 -5z m65
-10 c-7 -2 -21 -2 -30 0 -10 3 -4 5 12 5 17 0 24 -2 18 -5z m60 -10 c-7 -2
-19 -2 -25 0 -7 3 -2 5 12 5 14 0 19 -2 13 -5z m75 -10 c-10 -2 -28 -2 -40 0
-13 2 -5 4 17 4 22 1 32 -1 23 -4z m93 -26 c19 -13 58 -41 87 -62 l54 -38 189
-16 c104 -8 189 -18 189 -21 0 -6 -256 13 -346 25 -27 4 -65 23 -115 59 -41
29 -87 58 -104 64 -24 8 -26 11 -9 11 12 1 36 -9 55 -22z m779 -7 c-20 -13
-50 -13 -50 0 0 6 15 10 33 10 24 0 28 -3 17 -10z m381 -254 c-9 -16 -25 -35
-37 -42 -17 -12 -23 -12 -40 1 -18 14 -17 14 12 15 19 0 38 8 50 23 19 22 19
22 -2 5 -23 -20 -59 -24 -69 -8 -3 6 1 10 9 10 9 0 30 13 48 29 29 26 34 27
39 13 4 -9 -1 -30 -10 -46z m-3045 -105 c-16 -31 -10 -46 13 -31 8 4 11 15 8
24 -4 9 1 19 11 25 16 8 17 5 14 -27 -5 -46 -18 -62 -47 -62 -43 0 -49 24 -19
69 31 47 43 48 20 2z"/>
<path d="M784 1241 c-5 -5 -18 -11 -29 -14 l-20 -5 20 -1 c22 -1 52 15 44 23
-3 3 -10 2 -15 -3z"/>
<path d="M882 1468 c-26 -33 -25 -296 2 -333 12 -17 159 -49 386 -84 156 -24
399 -41 582 -41 121 0 128 1 142 23 18 29 33 217 16 201 -8 -9 -22 -9 -48 -2
-19 5 -48 8 -63 6 -16 -3 -25 0 -22 5 4 7 -32 8 -98 5 -57 -3 -86 -2 -64 2
l40 7 -36 2 c-65 2 -129 14 -129 22 0 5 18 9 39 9 22 0 41 4 43 8 4 10 308
-16 331 -28 15 -9 17 -5 17 44 0 34 -5 58 -14 65 -18 15 -498 65 -817 86 -285
18 -294 18 -307 3z m587 -73 c32 -16 81 -70 81 -88 0 -7 -15 4 -33 25 -38 43
-65 58 -107 58 -45 0 -67 -15 -101 -68 -29 -45 -34 -76 -23 -119 6 -22 6 -22
53 9 58 40 59 41 67 111 8 71 24 75 24 6 0 -31 -4 -48 -10 -44 -6 4 -10 -5
-10 -19 0 -15 6 -26 14 -26 7 0 34 -18 59 -40 25 -22 47 -40 50 -40 10 0 26
61 21 75 -4 8 -1 15 5 15 31 0 -3 -106 -47 -147 -52 -47 -89 -51 -152 -16 -59
33 -90 85 -90 154 1 123 104 203 199 154z m-514 -24 c3 -5 22 -8 43 -6 25 3
31 1 17 -4 -25 -10 103 -24 142 -15 22 4 25 3 13 -5 -12 -8 -7 -11 20 -11 28
0 32 3 20 11 -12 9 -11 9 5 4 11 -4 28 -7 38 -7 19 1 22 -9 7 -24 -7 -7 -57
-4 -153 7 -78 10 -161 18 -184 19 -47 0 -63 13 -36 29 23 13 60 14 68 2z m98
-58 c-7 -2 -21 -2 -30 0 -10 3 -4 5 12 5 17 0 24 -2 18 -5z m160 -20 c-7 -2
-19 -2 -25 0 -7 3 -2 5 12 5 14 0 19 -2 13 -5z m-143 -53 c165 -27 180 -30
180 -39 0 -10 -342 49 -355 61 -7 7 0 8 20 4 17 -3 86 -15 155 -26z m888 -79
c23 -1 42 -4 42 -9 0 -8 -161 -6 -317 4 -156 10 -103 19 69 13 90 -4 182 -7
206 -8z"/>
<path d="M1347 1185 l-58 -21 20 -26 c25 -31 79 -58 116 -58 30 0 90 33 98 54
3 8 -17 23 -56 42 l-62 30 -58 -21z"/>
<path d="M928 1363 c7 -3 16 -2 19 1 4 3 -2 6 -13 5 -11 0 -14 -3 -6 -6z"/>
<path d="M2678 1363 c6 -2 18 -2 25 0 6 3 1 5 -13 5 -14 0 -19 -2 -12 -5z"/>
<path d="M2220 1010 c0 -5 7 -7 15 -4 8 4 15 8 15 10 0 2 -7 4 -15 4 -8 0 -15
-4 -15 -10z"/>
<path d="M2431 994 c0 -11 3 -14 6 -6 3 7 2 16 -1 19 -3 4 -6 -2 -5 -13z"/>
<path d="M3370 820 c-9 -6 -10 -10 -3 -10 6 0 15 5 18 10 8 12 4 12 -15 0z"/>
<path d="M1920 568 c0 -4 7 -8 15 -8 8 0 15 4 15 8 0 5 -7 9 -15 9 -8 0 -15
-4 -15 -9z"/>
<path d="M1960 565 c0 -8 5 -15 10 -15 6 0 10 7 10 15 0 8 -4 15 -10 15 -5 0
-10 -7 -10 -15z"/>
<path d="M1644 2405 c-15 -39 21 -59 51 -29 12 12 13 19 4 30 -15 18 -48 18
-55 -1z"/>
<path d="M1000 2370 c8 -5 22 -9 30 -9 10 0 8 3 -5 9 -27 12 -43 12 -25 0z"/>
<path d="M2383 2298 c2 -7 -5 -18 -17 -25 -20 -12 -20 -12 -2 -13 19 0 19 0 1
-13 -15 -12 -23 -12 -49 1 -18 9 -63 17 -111 18 l-80 3 67 -8 c122 -14 249
-97 304 -200 12 -22 24 -37 27 -34 3 3 3 -5 0 -18 -4 -12 -2 -20 3 -16 5 3 9
-7 10 -21 0 -15 1 -49 2 -76 l2 -50 35 34 c20 19 33 40 31 47 -3 7 -2 12 2 10
4 -1 8 1 10 5 1 4 14 19 27 32 14 14 25 31 25 39 0 7 9 33 21 56 11 24 18 46
14 49 -3 3 -8 -4 -12 -16 -3 -12 -9 -22 -14 -22 -15 0 -10 20 10 46 11 14 17
33 14 45 -3 12 -1 24 6 28 6 4 -15 5 -48 3 -36 -3 -61 0 -65 7 -4 6 -1 11 8
11 30 0 26 19 -6 29 -18 5 -64 21 -103 35 -76 28 -119 34 -112 14z"/>
<path d="M880 2165 c7 -9 15 -13 17 -11 7 7 -7 26 -19 26 -6 0 -6 -6 2 -15z"/>
<path d="M1120 2170 c-8 -5 -10 -10 -5 -10 6 0 17 5 25 10 8 5 11 10 5 10 -5
0 -17 -5 -25 -10z"/>
<path d="M450 1900 c25 -22 36 -25 44 -11 3 4 -6 13 -20 20 -38 17 -50 13 -24
-9z"/>
<path d="M875 1850 c3 -5 18 -10 33 -10 21 0 24 2 12 10 -20 13 -53 13 -45 0z"/>
<path d="M500 1811 c25 -10 60 -21 78 -24 l33 -7 -27 25 c-22 20 -37 25 -78
24 l-51 0 45 -18z"/>
<path d="M1168 1788 c5 -5 16 -8 23 -6 8 3 3 7 -10 11 -17 4 -21 3 -13 -5z"/>
<path d="M1080 1780 c8 -5 20 -10 25 -10 6 0 3 5 -5 10 -8 5 -19 10 -25 10 -5
0 -3 -5 5 -10z"/>
<path d="M978 1733 c7 -3 16 -2 19 1 4 3 -2 6 -13 5 -11 0 -14 -3 -6 -6z"/>
<path d="M1148 1733 c7 -3 16 -2 19 1 4 3 -2 6 -13 5 -11 0 -14 -3 -6 -6z"/>
<path d="M4000 1710 c0 -5 11 -10 25 -10 14 0 25 5 25 10 0 6 -11 10 -25 10
-14 0 -25 -4 -25 -10z"/>
<path d="M790 1657 l0 -35 -67 6 c-63 5 -67 4 -54 -11 10 -13 31 -17 92 -17
67 0 82 3 96 20 12 13 31 21 58 22 l40 1 -40 4 c-22 3 -43 10 -47 16 -5 8 -8
5 -8 -7 0 -19 -1 -19 -22 1 -42 37 -48 37 -48 0z"/>
<path d="M3728 1663 c6 -2 18 -2 25 0 6 3 1 5 -13 5 -14 0 -19 -2 -12 -5z"/>
<path d="M3793 1493 c9 -2 25 -2 35 0 9 3 1 5 -18 5 -19 0 -27 -2 -17 -5z"/>
<path d="M3975 411 c-139 -111 -260 -275 -281 -380 l-6 -31 181 0 181 0 0 230
c0 127 -3 230 -7 230 -5 -1 -35 -22 -68 -49z"/>
</g>
</svg>
